<mxfile host="app.diagrams.net" agent="Mozilla/5.0 (Windows NT 10.0; Win64; x64) AppleWebKit/537.36 (KHTML, like Gecko) Chrome/135.0.0.0 Safari/537.36" version="26.2.9">
  <diagram id="C5RBs43oDa-KdzZeNtuy" name="Page-1">
    <mxGraphModel dx="2456" dy="1389" grid="1" gridSize="10" guides="1" tooltips="1" connect="1" arrows="1" fold="1" page="1" pageScale="1" pageWidth="827" pageHeight="1169" math="0" shadow="0">
      <root>
        <mxCell id="WIyWlLk6GJQsqaUBKTNV-0" />
        <mxCell id="WIyWlLk6GJQsqaUBKTNV-1" parent="WIyWlLk6GJQsqaUBKTNV-0" />
        <mxCell id="yz-Z1-8aH_BNr-5GH5Zy-1" value="Passenger Lifecycle" style="swimlane;" vertex="1" parent="WIyWlLk6GJQsqaUBKTNV-1">
          <mxGeometry x="100" y="150" width="330" height="950" as="geometry" />
        </mxCell>
        <mxCell id="yz-Z1-8aH_BNr-5GH5Zy-2" value="" style="ellipse;html=1;shape=startState;fillColor=#000000;strokeColor=#ff0000;" vertex="1" parent="yz-Z1-8aH_BNr-5GH5Zy-1">
          <mxGeometry x="140" y="30" width="30" height="30" as="geometry" />
        </mxCell>
        <mxCell id="yz-Z1-8aH_BNr-5GH5Zy-3" value="Search available flights" style="edgeStyle=orthogonalEdgeStyle;html=1;verticalAlign=bottom;endArrow=open;endSize=8;strokeColor=#ff0000;rounded=0;" edge="1" source="yz-Z1-8aH_BNr-5GH5Zy-2" parent="yz-Z1-8aH_BNr-5GH5Zy-1">
          <mxGeometry relative="1" as="geometry">
            <mxPoint x="155" y="120" as="targetPoint" />
          </mxGeometry>
        </mxCell>
        <mxCell id="yz-Z1-8aH_BNr-5GH5Zy-10" value="Select flight and seat" style="edgeStyle=orthogonalEdgeStyle;rounded=0;orthogonalLoop=1;jettySize=auto;html=1;exitX=0.5;exitY=1;exitDx=0;exitDy=0;entryX=0.5;entryY=0;entryDx=0;entryDy=0;" edge="1" parent="yz-Z1-8aH_BNr-5GH5Zy-1" source="yz-Z1-8aH_BNr-5GH5Zy-4" target="yz-Z1-8aH_BNr-5GH5Zy-5">
          <mxGeometry relative="1" as="geometry" />
        </mxCell>
        <mxCell id="yz-Z1-8aH_BNr-5GH5Zy-4" value="SearchFlights" style="rounded=1;whiteSpace=wrap;html=1;" vertex="1" parent="yz-Z1-8aH_BNr-5GH5Zy-1">
          <mxGeometry x="95" y="120" width="120" height="60" as="geometry" />
        </mxCell>
        <mxCell id="yz-Z1-8aH_BNr-5GH5Zy-11" value="Enter personal details" style="edgeStyle=orthogonalEdgeStyle;rounded=0;orthogonalLoop=1;jettySize=auto;html=1;exitX=0.5;exitY=1;exitDx=0;exitDy=0;entryX=0.5;entryY=0;entryDx=0;entryDy=0;" edge="1" parent="yz-Z1-8aH_BNr-5GH5Zy-1" source="yz-Z1-8aH_BNr-5GH5Zy-5" target="yz-Z1-8aH_BNr-5GH5Zy-6">
          <mxGeometry relative="1" as="geometry" />
        </mxCell>
        <mxCell id="yz-Z1-8aH_BNr-5GH5Zy-5" value="SelectFlight" style="rounded=1;whiteSpace=wrap;html=1;" vertex="1" parent="yz-Z1-8aH_BNr-5GH5Zy-1">
          <mxGeometry x="95" y="250" width="120" height="60" as="geometry" />
        </mxCell>
        <mxCell id="yz-Z1-8aH_BNr-5GH5Zy-12" value="Choose payment method" style="edgeStyle=orthogonalEdgeStyle;rounded=0;orthogonalLoop=1;jettySize=auto;html=1;exitX=0.5;exitY=1;exitDx=0;exitDy=0;entryX=0.5;entryY=0;entryDx=0;entryDy=0;" edge="1" parent="yz-Z1-8aH_BNr-5GH5Zy-1" source="yz-Z1-8aH_BNr-5GH5Zy-6" target="yz-Z1-8aH_BNr-5GH5Zy-7">
          <mxGeometry relative="1" as="geometry" />
        </mxCell>
        <mxCell id="yz-Z1-8aH_BNr-5GH5Zy-6" value="EnterDetails" style="rounded=1;whiteSpace=wrap;html=1;" vertex="1" parent="yz-Z1-8aH_BNr-5GH5Zy-1">
          <mxGeometry x="95" y="390" width="120" height="60" as="geometry" />
        </mxCell>
        <mxCell id="yz-Z1-8aH_BNr-5GH5Zy-13" value="Select additional services" style="edgeStyle=orthogonalEdgeStyle;rounded=0;orthogonalLoop=1;jettySize=auto;html=1;exitX=0.5;exitY=1;exitDx=0;exitDy=0;" edge="1" parent="yz-Z1-8aH_BNr-5GH5Zy-1" source="yz-Z1-8aH_BNr-5GH5Zy-7" target="yz-Z1-8aH_BNr-5GH5Zy-8">
          <mxGeometry relative="1" as="geometry" />
        </mxCell>
        <mxCell id="yz-Z1-8aH_BNr-5GH5Zy-7" value="ChoosePayment" style="rounded=1;whiteSpace=wrap;html=1;" vertex="1" parent="yz-Z1-8aH_BNr-5GH5Zy-1">
          <mxGeometry x="95" y="520" width="120" height="60" as="geometry" />
        </mxCell>
        <mxCell id="yz-Z1-8aH_BNr-5GH5Zy-14" value="Booking complete" style="edgeStyle=orthogonalEdgeStyle;rounded=0;orthogonalLoop=1;jettySize=auto;html=1;exitX=0.5;exitY=1;exitDx=0;exitDy=0;entryX=0.5;entryY=0;entryDx=0;entryDy=0;" edge="1" parent="yz-Z1-8aH_BNr-5GH5Zy-1" source="yz-Z1-8aH_BNr-5GH5Zy-8" target="yz-Z1-8aH_BNr-5GH5Zy-9">
          <mxGeometry relative="1" as="geometry" />
        </mxCell>
        <mxCell id="yz-Z1-8aH_BNr-5GH5Zy-8" value="SelectServices" style="rounded=1;whiteSpace=wrap;html=1;" vertex="1" parent="yz-Z1-8aH_BNr-5GH5Zy-1">
          <mxGeometry x="95" y="650" width="120" height="60" as="geometry" />
        </mxCell>
        <mxCell id="yz-Z1-8aH_BNr-5GH5Zy-16" style="edgeStyle=orthogonalEdgeStyle;rounded=0;orthogonalLoop=1;jettySize=auto;html=1;exitX=0.5;exitY=1;exitDx=0;exitDy=0;" edge="1" parent="yz-Z1-8aH_BNr-5GH5Zy-1" source="yz-Z1-8aH_BNr-5GH5Zy-9" target="yz-Z1-8aH_BNr-5GH5Zy-15">
          <mxGeometry relative="1" as="geometry" />
        </mxCell>
        <mxCell id="yz-Z1-8aH_BNr-5GH5Zy-9" value="BookingCompleted" style="rounded=1;whiteSpace=wrap;html=1;" vertex="1" parent="yz-Z1-8aH_BNr-5GH5Zy-1">
          <mxGeometry x="95" y="780" width="120" height="60" as="geometry" />
        </mxCell>
        <mxCell id="yz-Z1-8aH_BNr-5GH5Zy-15" value="" style="ellipse;html=1;shape=endState;fillColor=#000000;strokeColor=#ff0000;" vertex="1" parent="yz-Z1-8aH_BNr-5GH5Zy-1">
          <mxGeometry x="140" y="900" width="30" height="30" as="geometry" />
        </mxCell>
        <mxCell id="yz-Z1-8aH_BNr-5GH5Zy-17" value="Airline System Lifecycle" style="swimlane;" vertex="1" parent="WIyWlLk6GJQsqaUBKTNV-1">
          <mxGeometry x="620" y="150" width="550" height="950" as="geometry" />
        </mxCell>
        <mxCell id="yz-Z1-8aH_BNr-5GH5Zy-18" value="" style="ellipse;html=1;shape=startState;fillColor=#000000;strokeColor=#ff0000;" vertex="1" parent="yz-Z1-8aH_BNr-5GH5Zy-17">
          <mxGeometry x="260" y="40" width="30" height="30" as="geometry" />
        </mxCell>
        <mxCell id="yz-Z1-8aH_BNr-5GH5Zy-19" value="Check-in Option Available" style="edgeStyle=orthogonalEdgeStyle;html=1;verticalAlign=bottom;endArrow=open;endSize=8;strokeColor=#ff0000;rounded=0;" edge="1" parent="yz-Z1-8aH_BNr-5GH5Zy-17" source="yz-Z1-8aH_BNr-5GH5Zy-18">
          <mxGeometry relative="1" as="geometry">
            <mxPoint x="275" y="130" as="targetPoint" />
          </mxGeometry>
        </mxCell>
        <mxCell id="yz-Z1-8aH_BNr-5GH5Zy-20" value="Check-in Online" style="edgeStyle=orthogonalEdgeStyle;rounded=0;orthogonalLoop=1;jettySize=auto;html=1;exitX=0.5;exitY=1;exitDx=0;exitDy=0;entryX=0.5;entryY=0;entryDx=0;entryDy=0;" edge="1" parent="yz-Z1-8aH_BNr-5GH5Zy-17" source="yz-Z1-8aH_BNr-5GH5Zy-21" target="yz-Z1-8aH_BNr-5GH5Zy-23">
          <mxGeometry relative="1" as="geometry" />
        </mxCell>
        <mxCell id="yz-Z1-8aH_BNr-5GH5Zy-33" value="Check-in at Airport" style="edgeStyle=orthogonalEdgeStyle;rounded=0;orthogonalLoop=1;jettySize=auto;html=1;exitX=0.5;exitY=1;exitDx=0;exitDy=0;entryX=0.5;entryY=0;entryDx=0;entryDy=0;" edge="1" parent="yz-Z1-8aH_BNr-5GH5Zy-17" source="yz-Z1-8aH_BNr-5GH5Zy-21" target="yz-Z1-8aH_BNr-5GH5Zy-25">
          <mxGeometry relative="1" as="geometry" />
        </mxCell>
        <mxCell id="yz-Z1-8aH_BNr-5GH5Zy-21" value="CheckingOption" style="rounded=1;whiteSpace=wrap;html=1;" vertex="1" parent="yz-Z1-8aH_BNr-5GH5Zy-17">
          <mxGeometry x="215" y="130" width="120" height="60" as="geometry" />
        </mxCell>
        <mxCell id="yz-Z1-8aH_BNr-5GH5Zy-34" value="Select or Change Seat" style="edgeStyle=orthogonalEdgeStyle;rounded=0;orthogonalLoop=1;jettySize=auto;html=1;exitX=0.5;exitY=1;exitDx=0;exitDy=0;entryX=0;entryY=0.5;entryDx=0;entryDy=0;" edge="1" parent="yz-Z1-8aH_BNr-5GH5Zy-17" source="yz-Z1-8aH_BNr-5GH5Zy-23" target="yz-Z1-8aH_BNr-5GH5Zy-27">
          <mxGeometry relative="1" as="geometry" />
        </mxCell>
        <mxCell id="yz-Z1-8aH_BNr-5GH5Zy-23" value="OnlineCheckIn" style="rounded=1;whiteSpace=wrap;html=1;" vertex="1" parent="yz-Z1-8aH_BNr-5GH5Zy-17">
          <mxGeometry x="95" y="250" width="120" height="60" as="geometry" />
        </mxCell>
        <mxCell id="yz-Z1-8aH_BNr-5GH5Zy-24" value="Select or Change Seat" style="edgeStyle=orthogonalEdgeStyle;rounded=0;orthogonalLoop=1;jettySize=auto;html=1;exitX=0.5;exitY=1;exitDx=0;exitDy=0;entryX=1;entryY=0.5;entryDx=0;entryDy=0;" edge="1" parent="yz-Z1-8aH_BNr-5GH5Zy-17" source="yz-Z1-8aH_BNr-5GH5Zy-25" target="yz-Z1-8aH_BNr-5GH5Zy-27">
          <mxGeometry relative="1" as="geometry">
            <Array as="points">
              <mxPoint x="380" y="450" />
            </Array>
          </mxGeometry>
        </mxCell>
        <mxCell id="yz-Z1-8aH_BNr-5GH5Zy-25" value="AirportCheckIn" style="rounded=1;whiteSpace=wrap;html=1;" vertex="1" parent="yz-Z1-8aH_BNr-5GH5Zy-17">
          <mxGeometry x="320" y="250" width="120" height="60" as="geometry" />
        </mxCell>
        <mxCell id="yz-Z1-8aH_BNr-5GH5Zy-26" value="Drop Baggage" style="edgeStyle=orthogonalEdgeStyle;rounded=0;orthogonalLoop=1;jettySize=auto;html=1;exitX=0.5;exitY=1;exitDx=0;exitDy=0;" edge="1" parent="yz-Z1-8aH_BNr-5GH5Zy-17" source="yz-Z1-8aH_BNr-5GH5Zy-27" target="yz-Z1-8aH_BNr-5GH5Zy-29">
          <mxGeometry relative="1" as="geometry" />
        </mxCell>
        <mxCell id="yz-Z1-8aH_BNr-5GH5Zy-27" value="Seatselection" style="rounded=1;whiteSpace=wrap;html=1;" vertex="1" parent="yz-Z1-8aH_BNr-5GH5Zy-17">
          <mxGeometry x="215" y="420" width="120" height="60" as="geometry" />
        </mxCell>
        <mxCell id="yz-Z1-8aH_BNr-5GH5Zy-28" value="Generate Boarding Pass" style="edgeStyle=orthogonalEdgeStyle;rounded=0;orthogonalLoop=1;jettySize=auto;html=1;exitX=0.5;exitY=1;exitDx=0;exitDy=0;entryX=0.5;entryY=0;entryDx=0;entryDy=0;" edge="1" parent="yz-Z1-8aH_BNr-5GH5Zy-17" source="yz-Z1-8aH_BNr-5GH5Zy-29" target="yz-Z1-8aH_BNr-5GH5Zy-31">
          <mxGeometry relative="1" as="geometry" />
        </mxCell>
        <mxCell id="yz-Z1-8aH_BNr-5GH5Zy-29" value="BaggageDrop" style="rounded=1;whiteSpace=wrap;html=1;" vertex="1" parent="yz-Z1-8aH_BNr-5GH5Zy-17">
          <mxGeometry x="215" y="580" width="120" height="60" as="geometry" />
        </mxCell>
        <mxCell id="yz-Z1-8aH_BNr-5GH5Zy-30" value="Completed Check-in Process" style="edgeStyle=orthogonalEdgeStyle;rounded=0;orthogonalLoop=1;jettySize=auto;html=1;exitX=0.5;exitY=1;exitDx=0;exitDy=0;" edge="1" parent="yz-Z1-8aH_BNr-5GH5Zy-17" source="yz-Z1-8aH_BNr-5GH5Zy-31" target="yz-Z1-8aH_BNr-5GH5Zy-32">
          <mxGeometry relative="1" as="geometry" />
        </mxCell>
        <mxCell id="yz-Z1-8aH_BNr-5GH5Zy-31" value="GenerateBoardingPass" style="rounded=1;whiteSpace=wrap;html=1;" vertex="1" parent="yz-Z1-8aH_BNr-5GH5Zy-17">
          <mxGeometry x="202.5" y="740" width="145" height="60" as="geometry" />
        </mxCell>
        <mxCell id="yz-Z1-8aH_BNr-5GH5Zy-32" value="" style="ellipse;html=1;shape=endState;fillColor=#000000;strokeColor=#ff0000;" vertex="1" parent="yz-Z1-8aH_BNr-5GH5Zy-17">
          <mxGeometry x="260" y="900" width="30" height="30" as="geometry" />
        </mxCell>
        <mxCell id="yz-Z1-8aH_BNr-5GH5Zy-35" value="Security Lifecycle" style="swimlane;" vertex="1" parent="WIyWlLk6GJQsqaUBKTNV-1">
          <mxGeometry x="1410" y="150" width="710" height="680" as="geometry" />
        </mxCell>
        <mxCell id="yz-Z1-8aH_BNr-5GH5Zy-36" value="" style="ellipse;html=1;shape=startState;fillColor=#000000;strokeColor=#ff0000;" vertex="1" parent="yz-Z1-8aH_BNr-5GH5Zy-35">
          <mxGeometry x="260" y="40" width="30" height="30" as="geometry" />
        </mxCell>
        <mxCell id="yz-Z1-8aH_BNr-5GH5Zy-37" value="SecurityCheck" style="edgeStyle=orthogonalEdgeStyle;html=1;verticalAlign=bottom;endArrow=open;endSize=8;strokeColor=#ff0000;rounded=0;" edge="1" parent="yz-Z1-8aH_BNr-5GH5Zy-35" source="yz-Z1-8aH_BNr-5GH5Zy-36">
          <mxGeometry relative="1" as="geometry">
            <mxPoint x="275" y="130" as="targetPoint" />
          </mxGeometry>
        </mxCell>
        <mxCell id="yz-Z1-8aH_BNr-5GH5Zy-38" value="Security Clearance" style="edgeStyle=orthogonalEdgeStyle;rounded=0;orthogonalLoop=1;jettySize=auto;html=1;exitX=0;exitY=0.5;exitDx=0;exitDy=0;entryX=0.5;entryY=0;entryDx=0;entryDy=0;" edge="1" parent="yz-Z1-8aH_BNr-5GH5Zy-35" source="yz-Z1-8aH_BNr-5GH5Zy-40" target="yz-Z1-8aH_BNr-5GH5Zy-42">
          <mxGeometry relative="1" as="geometry" />
        </mxCell>
        <mxCell id="yz-Z1-8aH_BNr-5GH5Zy-39" value="Additional Screening Required" style="edgeStyle=orthogonalEdgeStyle;rounded=0;orthogonalLoop=1;jettySize=auto;html=1;exitX=1;exitY=0.5;exitDx=0;exitDy=0;entryX=0.5;entryY=0;entryDx=0;entryDy=0;" edge="1" parent="yz-Z1-8aH_BNr-5GH5Zy-35" source="yz-Z1-8aH_BNr-5GH5Zy-40" target="yz-Z1-8aH_BNr-5GH5Zy-44">
          <mxGeometry relative="1" as="geometry" />
        </mxCell>
        <mxCell id="yz-Z1-8aH_BNr-5GH5Zy-40" value="SecurityCheck" style="rounded=1;whiteSpace=wrap;html=1;" vertex="1" parent="yz-Z1-8aH_BNr-5GH5Zy-35">
          <mxGeometry x="215" y="130" width="120" height="60" as="geometry" />
        </mxCell>
        <mxCell id="yz-Z1-8aH_BNr-5GH5Zy-41" value="Proceed to boarding gate" style="edgeStyle=orthogonalEdgeStyle;rounded=0;orthogonalLoop=1;jettySize=auto;html=1;exitX=0.5;exitY=1;exitDx=0;exitDy=0;entryX=0.5;entryY=0;entryDx=0;entryDy=0;" edge="1" parent="yz-Z1-8aH_BNr-5GH5Zy-35" source="yz-Z1-8aH_BNr-5GH5Zy-42" target="yz-Z1-8aH_BNr-5GH5Zy-46">
          <mxGeometry relative="1" as="geometry" />
        </mxCell>
        <mxCell id="yz-Z1-8aH_BNr-5GH5Zy-42" value="OnlineCheckIn" style="rounded=1;whiteSpace=wrap;html=1;" vertex="1" parent="yz-Z1-8aH_BNr-5GH5Zy-35">
          <mxGeometry x="95" y="250" width="120" height="60" as="geometry" />
        </mxCell>
        <mxCell id="yz-Z1-8aH_BNr-5GH5Zy-56" value="Denied Boarding" style="edgeStyle=orthogonalEdgeStyle;rounded=0;orthogonalLoop=1;jettySize=auto;html=1;exitX=1;exitY=0.5;exitDx=0;exitDy=0;entryX=0.5;entryY=0;entryDx=0;entryDy=0;" edge="1" parent="yz-Z1-8aH_BNr-5GH5Zy-35" source="yz-Z1-8aH_BNr-5GH5Zy-44" target="yz-Z1-8aH_BNr-5GH5Zy-54">
          <mxGeometry relative="1" as="geometry" />
        </mxCell>
        <mxCell id="yz-Z1-8aH_BNr-5GH5Zy-57" value="Security Passed" style="edgeStyle=orthogonalEdgeStyle;rounded=0;orthogonalLoop=1;jettySize=auto;html=1;exitX=0.5;exitY=1;exitDx=0;exitDy=0;entryX=0.5;entryY=0;entryDx=0;entryDy=0;" edge="1" parent="yz-Z1-8aH_BNr-5GH5Zy-35" source="yz-Z1-8aH_BNr-5GH5Zy-44" target="yz-Z1-8aH_BNr-5GH5Zy-52">
          <mxGeometry relative="1" as="geometry" />
        </mxCell>
        <mxCell id="yz-Z1-8aH_BNr-5GH5Zy-44" value="Additional Screening" style="rounded=1;whiteSpace=wrap;html=1;" vertex="1" parent="yz-Z1-8aH_BNr-5GH5Zy-35">
          <mxGeometry x="320" y="250" width="120" height="60" as="geometry" />
        </mxCell>
        <mxCell id="yz-Z1-8aH_BNr-5GH5Zy-60" style="edgeStyle=orthogonalEdgeStyle;rounded=0;orthogonalLoop=1;jettySize=auto;html=1;exitX=0.5;exitY=1;exitDx=0;exitDy=0;entryX=0.5;entryY=0;entryDx=0;entryDy=0;" edge="1" parent="yz-Z1-8aH_BNr-5GH5Zy-35" source="yz-Z1-8aH_BNr-5GH5Zy-46" target="yz-Z1-8aH_BNr-5GH5Zy-59">
          <mxGeometry relative="1" as="geometry" />
        </mxCell>
        <mxCell id="yz-Z1-8aH_BNr-5GH5Zy-46" value="ProceedToGate" style="rounded=1;whiteSpace=wrap;html=1;" vertex="1" parent="yz-Z1-8aH_BNr-5GH5Zy-35">
          <mxGeometry x="95" y="500" width="120" height="60" as="geometry" />
        </mxCell>
        <mxCell id="yz-Z1-8aH_BNr-5GH5Zy-51" value="" style="ellipse;html=1;shape=endState;fillColor=#000000;strokeColor=#ff0000;" vertex="1" parent="yz-Z1-8aH_BNr-5GH5Zy-35">
          <mxGeometry x="575" y="515" width="30" height="30" as="geometry" />
        </mxCell>
        <mxCell id="yz-Z1-8aH_BNr-5GH5Zy-53" value="Proceed to boarding Gate" style="edgeStyle=orthogonalEdgeStyle;rounded=0;orthogonalLoop=1;jettySize=auto;html=1;exitX=0;exitY=0.5;exitDx=0;exitDy=0;entryX=1;entryY=0.5;entryDx=0;entryDy=0;" edge="1" parent="yz-Z1-8aH_BNr-5GH5Zy-35" source="yz-Z1-8aH_BNr-5GH5Zy-52" target="yz-Z1-8aH_BNr-5GH5Zy-46">
          <mxGeometry relative="1" as="geometry" />
        </mxCell>
        <mxCell id="yz-Z1-8aH_BNr-5GH5Zy-52" value="Seatselection" style="rounded=1;whiteSpace=wrap;html=1;" vertex="1" parent="yz-Z1-8aH_BNr-5GH5Zy-35">
          <mxGeometry x="320" y="380" width="120" height="60" as="geometry" />
        </mxCell>
        <mxCell id="yz-Z1-8aH_BNr-5GH5Zy-58" value="Boarding Denied" style="edgeStyle=orthogonalEdgeStyle;rounded=0;orthogonalLoop=1;jettySize=auto;html=1;exitX=0.5;exitY=1;exitDx=0;exitDy=0;entryX=0.5;entryY=0;entryDx=0;entryDy=0;" edge="1" parent="yz-Z1-8aH_BNr-5GH5Zy-35" source="yz-Z1-8aH_BNr-5GH5Zy-54" target="yz-Z1-8aH_BNr-5GH5Zy-51">
          <mxGeometry relative="1" as="geometry" />
        </mxCell>
        <mxCell id="yz-Z1-8aH_BNr-5GH5Zy-54" value="DeniedBoarding" style="rounded=1;whiteSpace=wrap;html=1;" vertex="1" parent="yz-Z1-8aH_BNr-5GH5Zy-35">
          <mxGeometry x="530" y="380" width="120" height="60" as="geometry" />
        </mxCell>
        <mxCell id="yz-Z1-8aH_BNr-5GH5Zy-59" value="" style="ellipse;html=1;shape=endState;fillColor=#000000;strokeColor=#ff0000;" vertex="1" parent="yz-Z1-8aH_BNr-5GH5Zy-35">
          <mxGeometry x="140" y="640" width="30" height="30" as="geometry" />
        </mxCell>
        <mxCell id="yz-Z1-8aH_BNr-5GH5Zy-61" value="Boarding Lifecycle" style="swimlane;" vertex="1" parent="WIyWlLk6GJQsqaUBKTNV-1">
          <mxGeometry x="100" y="1270" width="550" height="1000" as="geometry" />
        </mxCell>
        <mxCell id="yz-Z1-8aH_BNr-5GH5Zy-62" value="" style="ellipse;html=1;shape=startState;fillColor=#000000;strokeColor=#ff0000;" vertex="1" parent="yz-Z1-8aH_BNr-5GH5Zy-61">
          <mxGeometry x="260" y="40" width="30" height="30" as="geometry" />
        </mxCell>
        <mxCell id="yz-Z1-8aH_BNr-5GH5Zy-63" value="Verify Documents" style="edgeStyle=orthogonalEdgeStyle;html=1;verticalAlign=bottom;endArrow=open;endSize=8;strokeColor=#ff0000;rounded=0;" edge="1" parent="yz-Z1-8aH_BNr-5GH5Zy-61" source="yz-Z1-8aH_BNr-5GH5Zy-62">
          <mxGeometry relative="1" as="geometry">
            <mxPoint x="275" y="130" as="targetPoint" />
          </mxGeometry>
        </mxCell>
        <mxCell id="yz-Z1-8aH_BNr-5GH5Zy-64" value="Scan Boarding Pass" style="edgeStyle=orthogonalEdgeStyle;rounded=0;orthogonalLoop=1;jettySize=auto;html=1;exitX=0.5;exitY=1;exitDx=0;exitDy=0;entryX=0.5;entryY=0;entryDx=0;entryDy=0;" edge="1" parent="yz-Z1-8aH_BNr-5GH5Zy-61" source="yz-Z1-8aH_BNr-5GH5Zy-66" target="yz-Z1-8aH_BNr-5GH5Zy-68">
          <mxGeometry relative="1" as="geometry" />
        </mxCell>
        <mxCell id="yz-Z1-8aH_BNr-5GH5Zy-66" value="Verify documents" style="rounded=1;whiteSpace=wrap;html=1;" vertex="1" parent="yz-Z1-8aH_BNr-5GH5Zy-61">
          <mxGeometry x="215" y="130" width="120" height="60" as="geometry" />
        </mxCell>
        <mxCell id="yz-Z1-8aH_BNr-5GH5Zy-67" value="Offer seat Upgrade" style="edgeStyle=orthogonalEdgeStyle;rounded=0;orthogonalLoop=1;jettySize=auto;html=1;exitX=0;exitY=0.5;exitDx=0;exitDy=0;entryX=0.5;entryY=0;entryDx=0;entryDy=0;" edge="1" parent="yz-Z1-8aH_BNr-5GH5Zy-61" source="yz-Z1-8aH_BNr-5GH5Zy-68" target="yz-Z1-8aH_BNr-5GH5Zy-72">
          <mxGeometry relative="1" as="geometry" />
        </mxCell>
        <mxCell id="yz-Z1-8aH_BNr-5GH5Zy-80" value="Board Flight" style="edgeStyle=orthogonalEdgeStyle;rounded=0;orthogonalLoop=1;jettySize=auto;html=1;exitX=1;exitY=0.5;exitDx=0;exitDy=0;entryX=0.5;entryY=0;entryDx=0;entryDy=0;" edge="1" parent="yz-Z1-8aH_BNr-5GH5Zy-61" source="yz-Z1-8aH_BNr-5GH5Zy-68" target="yz-Z1-8aH_BNr-5GH5Zy-79">
          <mxGeometry relative="1" as="geometry" />
        </mxCell>
        <mxCell id="yz-Z1-8aH_BNr-5GH5Zy-68" value="Scan Boarding Pass" style="rounded=1;whiteSpace=wrap;html=1;" vertex="1" parent="yz-Z1-8aH_BNr-5GH5Zy-61">
          <mxGeometry x="215" y="280" width="120" height="60" as="geometry" />
        </mxCell>
        <mxCell id="yz-Z1-8aH_BNr-5GH5Zy-71" value="Upgrade Accepted" style="edgeStyle=orthogonalEdgeStyle;rounded=0;orthogonalLoop=1;jettySize=auto;html=1;exitX=0.5;exitY=1;exitDx=0;exitDy=0;" edge="1" parent="yz-Z1-8aH_BNr-5GH5Zy-61" source="yz-Z1-8aH_BNr-5GH5Zy-72" target="yz-Z1-8aH_BNr-5GH5Zy-74">
          <mxGeometry relative="1" as="geometry" />
        </mxCell>
        <mxCell id="yz-Z1-8aH_BNr-5GH5Zy-84" value="Upgrade Not Accepted/Board Flight" style="edgeStyle=orthogonalEdgeStyle;rounded=0;orthogonalLoop=1;jettySize=auto;html=1;exitX=1;exitY=0.5;exitDx=0;exitDy=0;entryX=0;entryY=0;entryDx=0;entryDy=0;" edge="1" parent="yz-Z1-8aH_BNr-5GH5Zy-61" source="yz-Z1-8aH_BNr-5GH5Zy-72" target="yz-Z1-8aH_BNr-5GH5Zy-79">
          <mxGeometry relative="1" as="geometry" />
        </mxCell>
        <mxCell id="yz-Z1-8aH_BNr-5GH5Zy-72" value="SeatUpgrade" style="rounded=1;whiteSpace=wrap;html=1;" vertex="1" parent="yz-Z1-8aH_BNr-5GH5Zy-61">
          <mxGeometry x="82.5" y="414" width="120" height="60" as="geometry" />
        </mxCell>
        <mxCell id="yz-Z1-8aH_BNr-5GH5Zy-73" value="Assign New Seat" style="edgeStyle=orthogonalEdgeStyle;rounded=0;orthogonalLoop=1;jettySize=auto;html=1;exitX=0.5;exitY=1;exitDx=0;exitDy=0;entryX=0.5;entryY=0;entryDx=0;entryDy=0;" edge="1" parent="yz-Z1-8aH_BNr-5GH5Zy-61" source="yz-Z1-8aH_BNr-5GH5Zy-74" target="yz-Z1-8aH_BNr-5GH5Zy-76">
          <mxGeometry relative="1" as="geometry" />
        </mxCell>
        <mxCell id="yz-Z1-8aH_BNr-5GH5Zy-74" value="UpgradeAccepted" style="rounded=1;whiteSpace=wrap;html=1;" vertex="1" parent="yz-Z1-8aH_BNr-5GH5Zy-61">
          <mxGeometry x="82.5" y="580" width="120" height="60" as="geometry" />
        </mxCell>
        <mxCell id="yz-Z1-8aH_BNr-5GH5Zy-81" value="BoardFlight" style="edgeStyle=orthogonalEdgeStyle;rounded=0;orthogonalLoop=1;jettySize=auto;html=1;exitX=1;exitY=0.5;exitDx=0;exitDy=0;entryX=0;entryY=0.5;entryDx=0;entryDy=0;" edge="1" parent="yz-Z1-8aH_BNr-5GH5Zy-61" source="yz-Z1-8aH_BNr-5GH5Zy-76" target="yz-Z1-8aH_BNr-5GH5Zy-79">
          <mxGeometry relative="1" as="geometry" />
        </mxCell>
        <mxCell id="yz-Z1-8aH_BNr-5GH5Zy-76" value="AssignNewSeat" style="rounded=1;whiteSpace=wrap;html=1;" vertex="1" parent="yz-Z1-8aH_BNr-5GH5Zy-61">
          <mxGeometry x="70" y="740" width="145" height="60" as="geometry" />
        </mxCell>
        <mxCell id="yz-Z1-8aH_BNr-5GH5Zy-83" value="Complete Boarding Process" style="edgeStyle=orthogonalEdgeStyle;rounded=0;orthogonalLoop=1;jettySize=auto;html=1;exitX=0.5;exitY=1;exitDx=0;exitDy=0;entryX=0.5;entryY=0;entryDx=0;entryDy=0;" edge="1" parent="yz-Z1-8aH_BNr-5GH5Zy-61" source="yz-Z1-8aH_BNr-5GH5Zy-79" target="yz-Z1-8aH_BNr-5GH5Zy-82">
          <mxGeometry relative="1" as="geometry" />
        </mxCell>
        <mxCell id="yz-Z1-8aH_BNr-5GH5Zy-79" value="BoardFlight" style="rounded=1;whiteSpace=wrap;html=1;" vertex="1" parent="yz-Z1-8aH_BNr-5GH5Zy-61">
          <mxGeometry x="335" y="740" width="120" height="60" as="geometry" />
        </mxCell>
        <mxCell id="yz-Z1-8aH_BNr-5GH5Zy-82" value="" style="ellipse;html=1;shape=endState;fillColor=#000000;strokeColor=#ff0000;" vertex="1" parent="yz-Z1-8aH_BNr-5GH5Zy-61">
          <mxGeometry x="380" y="900" width="30" height="30" as="geometry" />
        </mxCell>
        <mxCell id="yz-Z1-8aH_BNr-5GH5Zy-85" value="Notification System Lifecycle" style="swimlane;" vertex="1" parent="WIyWlLk6GJQsqaUBKTNV-1">
          <mxGeometry x="900" y="1270" width="330" height="580" as="geometry" />
        </mxCell>
        <mxCell id="yz-Z1-8aH_BNr-5GH5Zy-86" value="" style="ellipse;html=1;shape=startState;fillColor=#000000;strokeColor=#ff0000;" vertex="1" parent="yz-Z1-8aH_BNr-5GH5Zy-85">
          <mxGeometry x="140" y="30" width="30" height="30" as="geometry" />
        </mxCell>
        <mxCell id="yz-Z1-8aH_BNr-5GH5Zy-87" value="Send Flight Status Updates" style="edgeStyle=orthogonalEdgeStyle;html=1;verticalAlign=bottom;endArrow=open;endSize=8;strokeColor=#ff0000;rounded=0;" edge="1" parent="yz-Z1-8aH_BNr-5GH5Zy-85" source="yz-Z1-8aH_BNr-5GH5Zy-86">
          <mxGeometry relative="1" as="geometry">
            <mxPoint x="155" y="120" as="targetPoint" />
          </mxGeometry>
        </mxCell>
        <mxCell id="yz-Z1-8aH_BNr-5GH5Zy-88" value="Notify gate changes" style="edgeStyle=orthogonalEdgeStyle;rounded=0;orthogonalLoop=1;jettySize=auto;html=1;exitX=0.5;exitY=1;exitDx=0;exitDy=0;entryX=0.5;entryY=0;entryDx=0;entryDy=0;" edge="1" parent="yz-Z1-8aH_BNr-5GH5Zy-85" source="yz-Z1-8aH_BNr-5GH5Zy-89" target="yz-Z1-8aH_BNr-5GH5Zy-91">
          <mxGeometry relative="1" as="geometry" />
        </mxCell>
        <mxCell id="yz-Z1-8aH_BNr-5GH5Zy-89" value="SendFlightStatus" style="rounded=1;whiteSpace=wrap;html=1;" vertex="1" parent="yz-Z1-8aH_BNr-5GH5Zy-85">
          <mxGeometry x="95" y="120" width="120" height="60" as="geometry" />
        </mxCell>
        <mxCell id="yz-Z1-8aH_BNr-5GH5Zy-90" value="Alert Passengers of Delays or cancelations" style="edgeStyle=orthogonalEdgeStyle;rounded=0;orthogonalLoop=1;jettySize=auto;html=1;exitX=0.5;exitY=1;exitDx=0;exitDy=0;entryX=0.5;entryY=0;entryDx=0;entryDy=0;" edge="1" parent="yz-Z1-8aH_BNr-5GH5Zy-85" source="yz-Z1-8aH_BNr-5GH5Zy-91" target="yz-Z1-8aH_BNr-5GH5Zy-93">
          <mxGeometry relative="1" as="geometry" />
        </mxCell>
        <mxCell id="yz-Z1-8aH_BNr-5GH5Zy-91" value="NotifyGateChanges" style="rounded=1;whiteSpace=wrap;html=1;" vertex="1" parent="yz-Z1-8aH_BNr-5GH5Zy-85">
          <mxGeometry x="95" y="250" width="120" height="60" as="geometry" />
        </mxCell>
        <mxCell id="yz-Z1-8aH_BNr-5GH5Zy-92" value="Notifications Processed" style="edgeStyle=orthogonalEdgeStyle;rounded=0;orthogonalLoop=1;jettySize=auto;html=1;exitX=0.5;exitY=1;exitDx=0;exitDy=0;entryX=0.5;entryY=0;entryDx=0;entryDy=0;" edge="1" parent="yz-Z1-8aH_BNr-5GH5Zy-85" source="yz-Z1-8aH_BNr-5GH5Zy-93">
          <mxGeometry relative="1" as="geometry">
            <mxPoint x="155" y="520" as="targetPoint" />
          </mxGeometry>
        </mxCell>
        <mxCell id="yz-Z1-8aH_BNr-5GH5Zy-93" value="AlertDelays" style="rounded=1;whiteSpace=wrap;html=1;" vertex="1" parent="yz-Z1-8aH_BNr-5GH5Zy-85">
          <mxGeometry x="95" y="390" width="120" height="60" as="geometry" />
        </mxCell>
        <mxCell id="yz-Z1-8aH_BNr-5GH5Zy-108" value="" style="ellipse;html=1;shape=endState;fillColor=#000000;strokeColor=#ff0000;" vertex="1" parent="yz-Z1-8aH_BNr-5GH5Zy-85">
          <mxGeometry x="140" y="520" width="30" height="30" as="geometry" />
        </mxCell>
        <mxCell id="yz-Z1-8aH_BNr-5GH5Zy-127" value="Flight Operations Lifecycle" style="swimlane;" vertex="1" parent="WIyWlLk6GJQsqaUBKTNV-1">
          <mxGeometry x="1410" y="1260" width="1280" height="680" as="geometry" />
        </mxCell>
        <mxCell id="yz-Z1-8aH_BNr-5GH5Zy-128" value="" style="ellipse;html=1;shape=startState;fillColor=#000000;strokeColor=#ff0000;" vertex="1" parent="yz-Z1-8aH_BNr-5GH5Zy-127">
          <mxGeometry x="260" y="40" width="30" height="30" as="geometry" />
        </mxCell>
        <mxCell id="yz-Z1-8aH_BNr-5GH5Zy-129" value="Flight Takes Off" style="edgeStyle=orthogonalEdgeStyle;html=1;verticalAlign=bottom;endArrow=open;endSize=8;strokeColor=#ff0000;rounded=0;" edge="1" parent="yz-Z1-8aH_BNr-5GH5Zy-127" source="yz-Z1-8aH_BNr-5GH5Zy-128">
          <mxGeometry relative="1" as="geometry">
            <mxPoint x="275" y="130" as="targetPoint" />
          </mxGeometry>
        </mxCell>
        <mxCell id="yz-Z1-8aH_BNr-5GH5Zy-130" value="Flight Lands" style="edgeStyle=orthogonalEdgeStyle;rounded=0;orthogonalLoop=1;jettySize=auto;html=1;exitX=0;exitY=0.5;exitDx=0;exitDy=0;entryX=0.5;entryY=0;entryDx=0;entryDy=0;" edge="1" parent="yz-Z1-8aH_BNr-5GH5Zy-127" source="yz-Z1-8aH_BNr-5GH5Zy-132" target="yz-Z1-8aH_BNr-5GH5Zy-134">
          <mxGeometry relative="1" as="geometry" />
        </mxCell>
        <mxCell id="yz-Z1-8aH_BNr-5GH5Zy-131" value="In-Flight Services" style="edgeStyle=orthogonalEdgeStyle;rounded=0;orthogonalLoop=1;jettySize=auto;html=1;exitX=1;exitY=0.5;exitDx=0;exitDy=0;entryX=0.5;entryY=0;entryDx=0;entryDy=0;" edge="1" parent="yz-Z1-8aH_BNr-5GH5Zy-127" source="yz-Z1-8aH_BNr-5GH5Zy-132" target="yz-Z1-8aH_BNr-5GH5Zy-137">
          <mxGeometry relative="1" as="geometry" />
        </mxCell>
        <mxCell id="yz-Z1-8aH_BNr-5GH5Zy-132" value="Flight Takes Off" style="rounded=1;whiteSpace=wrap;html=1;" vertex="1" parent="yz-Z1-8aH_BNr-5GH5Zy-127">
          <mxGeometry x="215" y="130" width="120" height="60" as="geometry" />
        </mxCell>
        <mxCell id="yz-Z1-8aH_BNr-5GH5Zy-133" value="Flight Completed" style="edgeStyle=orthogonalEdgeStyle;rounded=0;orthogonalLoop=1;jettySize=auto;html=1;exitX=0.5;exitY=1;exitDx=0;exitDy=0;entryX=0.5;entryY=0;entryDx=0;entryDy=0;" edge="1" parent="yz-Z1-8aH_BNr-5GH5Zy-127" source="yz-Z1-8aH_BNr-5GH5Zy-134" target="yz-Z1-8aH_BNr-5GH5Zy-145">
          <mxGeometry relative="1" as="geometry">
            <mxPoint x="210" y="500" as="targetPoint" />
          </mxGeometry>
        </mxCell>
        <mxCell id="yz-Z1-8aH_BNr-5GH5Zy-134" value="FlightLands" style="rounded=1;whiteSpace=wrap;html=1;" vertex="1" parent="yz-Z1-8aH_BNr-5GH5Zy-127">
          <mxGeometry x="95" y="250" width="120" height="60" as="geometry" />
        </mxCell>
        <mxCell id="yz-Z1-8aH_BNr-5GH5Zy-135" value="Offer Duty-Free Shopping" style="edgeStyle=orthogonalEdgeStyle;rounded=0;orthogonalLoop=1;jettySize=auto;html=1;exitX=0.25;exitY=1;exitDx=0;exitDy=0;entryX=0.5;entryY=0;entryDx=0;entryDy=0;" edge="1" parent="yz-Z1-8aH_BNr-5GH5Zy-127" source="yz-Z1-8aH_BNr-5GH5Zy-137" target="yz-Z1-8aH_BNr-5GH5Zy-144">
          <mxGeometry relative="1" as="geometry" />
        </mxCell>
        <mxCell id="yz-Z1-8aH_BNr-5GH5Zy-136" value="Provide Meals &amp;amp; Drinks" style="edgeStyle=orthogonalEdgeStyle;rounded=0;orthogonalLoop=1;jettySize=auto;html=1;exitX=0;exitY=0.5;exitDx=0;exitDy=0;entryX=0.5;entryY=0;entryDx=0;entryDy=0;" edge="1" parent="yz-Z1-8aH_BNr-5GH5Zy-127" source="yz-Z1-8aH_BNr-5GH5Zy-137" target="yz-Z1-8aH_BNr-5GH5Zy-142">
          <mxGeometry relative="1" as="geometry" />
        </mxCell>
        <mxCell id="yz-Z1-8aH_BNr-5GH5Zy-148" value="Handle Passenger Requests" style="edgeStyle=orthogonalEdgeStyle;rounded=0;orthogonalLoop=1;jettySize=auto;html=1;exitX=0.75;exitY=1;exitDx=0;exitDy=0;entryX=0.5;entryY=0;entryDx=0;entryDy=0;" edge="1" parent="yz-Z1-8aH_BNr-5GH5Zy-127" source="yz-Z1-8aH_BNr-5GH5Zy-137" target="yz-Z1-8aH_BNr-5GH5Zy-146">
          <mxGeometry relative="1" as="geometry" />
        </mxCell>
        <mxCell id="yz-Z1-8aH_BNr-5GH5Zy-149" value="Handle Medical Emergency" style="edgeStyle=orthogonalEdgeStyle;rounded=0;orthogonalLoop=1;jettySize=auto;html=1;exitX=1;exitY=0.5;exitDx=0;exitDy=0;entryX=0.5;entryY=0;entryDx=0;entryDy=0;" edge="1" parent="yz-Z1-8aH_BNr-5GH5Zy-127" source="yz-Z1-8aH_BNr-5GH5Zy-137" target="yz-Z1-8aH_BNr-5GH5Zy-147">
          <mxGeometry relative="1" as="geometry" />
        </mxCell>
        <mxCell id="yz-Z1-8aH_BNr-5GH5Zy-137" value="InFlightServices" style="rounded=1;whiteSpace=wrap;html=1;" vertex="1" parent="yz-Z1-8aH_BNr-5GH5Zy-127">
          <mxGeometry x="650" y="190" width="120" height="60" as="geometry" />
        </mxCell>
        <mxCell id="yz-Z1-8aH_BNr-5GH5Zy-142" value="ProvideMeals" style="rounded=1;whiteSpace=wrap;html=1;" vertex="1" parent="yz-Z1-8aH_BNr-5GH5Zy-127">
          <mxGeometry x="320" y="380" width="120" height="60" as="geometry" />
        </mxCell>
        <mxCell id="yz-Z1-8aH_BNr-5GH5Zy-144" value="OfferDutyFreeShopping" style="rounded=1;whiteSpace=wrap;html=1;" vertex="1" parent="yz-Z1-8aH_BNr-5GH5Zy-127">
          <mxGeometry x="515" y="380" width="150" height="60" as="geometry" />
        </mxCell>
        <mxCell id="yz-Z1-8aH_BNr-5GH5Zy-145" value="" style="ellipse;html=1;shape=endState;fillColor=#000000;strokeColor=#ff0000;" vertex="1" parent="yz-Z1-8aH_BNr-5GH5Zy-127">
          <mxGeometry x="140" y="494" width="30" height="30" as="geometry" />
        </mxCell>
        <mxCell id="yz-Z1-8aH_BNr-5GH5Zy-146" value="HandleRequests" style="rounded=1;whiteSpace=wrap;html=1;" vertex="1" parent="yz-Z1-8aH_BNr-5GH5Zy-127">
          <mxGeometry x="770" y="380" width="120" height="60" as="geometry" />
        </mxCell>
        <mxCell id="yz-Z1-8aH_BNr-5GH5Zy-152" value="Notify Crew and Medical team" style="edgeStyle=orthogonalEdgeStyle;rounded=0;orthogonalLoop=1;jettySize=auto;html=1;exitX=0;exitY=0.5;exitDx=0;exitDy=0;entryX=0.5;entryY=0;entryDx=0;entryDy=0;" edge="1" parent="yz-Z1-8aH_BNr-5GH5Zy-127" source="yz-Z1-8aH_BNr-5GH5Zy-147" target="yz-Z1-8aH_BNr-5GH5Zy-150">
          <mxGeometry relative="1" as="geometry" />
        </mxCell>
        <mxCell id="yz-Z1-8aH_BNr-5GH5Zy-153" value="Emergency Landing If Required" style="edgeStyle=orthogonalEdgeStyle;rounded=0;orthogonalLoop=1;jettySize=auto;html=1;exitX=1;exitY=0.5;exitDx=0;exitDy=0;" edge="1" parent="yz-Z1-8aH_BNr-5GH5Zy-127" source="yz-Z1-8aH_BNr-5GH5Zy-147" target="yz-Z1-8aH_BNr-5GH5Zy-151">
          <mxGeometry relative="1" as="geometry" />
        </mxCell>
        <mxCell id="yz-Z1-8aH_BNr-5GH5Zy-147" value="MedicalEmergency" style="rounded=1;whiteSpace=wrap;html=1;" vertex="1" parent="yz-Z1-8aH_BNr-5GH5Zy-127">
          <mxGeometry x="1000" y="380" width="120" height="60" as="geometry" />
        </mxCell>
        <mxCell id="yz-Z1-8aH_BNr-5GH5Zy-150" value="NotifyCrew" style="rounded=1;whiteSpace=wrap;html=1;" vertex="1" parent="yz-Z1-8aH_BNr-5GH5Zy-127">
          <mxGeometry x="890" y="570" width="120" height="60" as="geometry" />
        </mxCell>
        <mxCell id="yz-Z1-8aH_BNr-5GH5Zy-151" value="EmergencyLanding" style="rounded=1;whiteSpace=wrap;html=1;" vertex="1" parent="yz-Z1-8aH_BNr-5GH5Zy-127">
          <mxGeometry x="1110" y="570" width="120" height="60" as="geometry" />
        </mxCell>
      </root>
    </mxGraphModel>
  </diagram>
</mxfile>
